<svg xmlns="http://www.w3.org/2000/svg" version="1.0" width="1024.000000pt" height="1024.000000pt" viewBox="0 0 1024.000000 1024.000000" preserveAspectRatio="xMidYMid meet">
<metadata fill="#9b5634">
Created by potrace 1.16, written by Peter Selinger 2001-2019
<meta name="Producer" content="Online-Convert" fill="#9b5634"/></metadata>
<g transform="translate(0.000000,1024.000000) scale(0.100000,-0.100000)" fill="#9b5634" stroke="none">
<path d="M3624 8986 c-214 -102 -310 -176 -425 -329 -120 -159 -185 -299 -210 -452 -10 -63 -20 -89 -44 -120 -18 -22 -48 -68 -69 -102 -25 -42 -72 -93 -144 -159 -230 -207 -431 -420 -507 -537 -24 -37 -29 -28 -11 19 8 22 17 51 20 66 3 15 28 55 54 90 80 105 110 153 161 255 72 144 139 320 162 425 19 87 43 393 33 410 -32 52 -291 -248 -399 -462 -39 -77 -85 -267 -94 -385 -4 -55 -3 -151 2 -214 8 -101 7 -124 -11 -195 -12 -45 -26 -103 -32 -131 -6 -27 -33 -88 -59 -135 -152 -270 -332 -642 -356 -735 -16 -61 -17 -57 -15 75 1 97 4 112 40 200 73 182 104 323 115 535 9 161 -8 327 -51 481 -38 141 -49 167 -70 162 -19 -4 -122 -227 -167 -364 -59 -175 -80 -291 -79 -430 0 -145 19 -224 94 -394 l51 -114 -7 -236 c-6 -187 -13 -270 -36 -410 -16 -96 -31 -231 -35 -300 -3 -69 -12 -168 -19 -220 l-12 -95 -11 45 c-31 119 -42 209 -46 375 -9 328 -63 509 -215 724 -51 73 -210 233 -226 228 -19 -6 -17 -332 3 -472 18 -124 70 -324 106 -410 29 -67 100 -159 193 -246 l88 -84 33 -110 c18 -60 46 -140 62 -177 24 -54 29 -81 29 -145 0 -43 5 -109 10 -148 26 -193 84 -530 104 -605 9 -30 14 -55 12 -57 -4 -4 -86 125 -86 136 0 5 -20 67 -44 139 -113 335 -280 573 -486 694 -143 83 -245 138 -258 138 -18 0 -15 -30 12 -117 14 -43 37 -118 52 -168 31 -101 170 -383 228 -462 60 -83 200 -190 383 -293 92 -52 111 -74 228 -261 42 -68 85 -133 96 -144 10 -11 34 -55 53 -98 20 -43 52 -102 71 -133 19 -30 72 -126 116 -212 45 -86 93 -173 108 -192 40 -53 90 -134 86 -139 -11 -10 -163 140 -196 194 -96 154 -119 185 -199 266 -194 197 -368 282 -763 375 -59 14 -80 15 -89 6 -9 -9 -7 -18 10 -39 12 -16 38 -55 58 -88 139 -230 418 -501 619 -600 91 -45 168 -65 285 -73 94 -7 97 -8 188 -65 51 -31 95 -57 99 -57 21 0 108 -69 140 -111 21 -28 70 -78 108 -111 39 -33 93 -81 120 -107 235 -218 325 -296 419 -359 59 -41 106 -75 104 -77 -2 -2 -41 9 -86 26 -46 16 -91 29 -101 29 -10 0 -28 12 -42 26 -66 73 -418 274 -539 308 -151 42 -322 57 -555 47 -108 -4 -125 -8 -125 -27 0 -18 141 -154 214 -205 120 -85 408 -223 543 -258 123 -33 340 -31 474 3 45 12 58 12 93 -1 23 -8 73 -21 111 -29 39 -8 108 -27 155 -43 47 -16 108 -35 137 -41 28 -6 73 -25 99 -42 70 -44 374 -195 409 -203 28 -7 262 -80 295 -92 8 -4 -10 -10 -40 -16 -76 -12 -86 -12 -160 6 -241 60 -340 78 -461 87 -147 11 -340 -1 -444 -26 -101 -25 -257 -75 -313 -100 -99 -44 -69 -69 203 -168 145 -54 263 -71 470 -71 106 0 211 6 255 14 101 18 228 63 328 117 116 62 231 82 392 66 63 -6 147 -17 185 -26 179 -38 272 -56 293 -56 12 0 22 -4 22 -10 0 -5 -5 -10 -10 -10 -19 0 -265 -92 -364 -137 -126 -56 -252 -129 -260 -149 -9 -22 10 -51 44 -69 39 -20 50 -19 79 9 53 50 266 161 416 216 86 32 259 81 290 82 17 0 84 -16 150 -37 228 -71 458 -175 549 -246 57 -46 74 -48 115 -13 62 52 43 71 -166 170 -194 92 -309 140 -384 160 -35 10 -68 21 -72 24 -5 4 18 11 50 15 100 12 278 44 307 54 57 22 208 33 318 23 110 -11 121 -14 262 -91 146 -80 291 -114 486 -114 256 0 379 25 670 138 98 38 127 56 116 73 -9 15 -297 107 -411 131 -265 57 -499 45 -775 -38 -139 -42 -144 -43 -233 -29 l-81 12 65 17 c239 65 512 178 700 290 66 39 90 47 367 119 151 39 154 39 215 25 166 -38 359 -28 522 26 156 52 393 175 514 266 75 56 193 173 188 186 -5 15 -234 30 -362 23 -81 -4 -274 -39 -365 -65 -62 -18 -182 -85 -286 -157 -124 -87 -219 -143 -304 -179 -87 -37 -172 -66 -177 -61 -3 2 19 20 49 40 237 159 386 285 682 580 87 86 203 176 227 176 5 0 32 15 61 33 75 47 97 54 242 77 237 38 298 71 522 281 136 127 214 219 312 366 40 62 78 115 83 118 5 4 9 15 9 26 0 27 -19 25 -205 -26 -189 -52 -369 -129 -477 -203 -87 -61 -224 -196 -275 -272 -77 -116 -294 -352 -309 -337 -3 3 28 56 69 119 92 141 194 310 208 345 5 14 19 40 32 57 12 17 44 74 72 128 27 53 103 182 167 286 117 188 118 189 180 222 146 78 325 205 388 277 106 121 247 424 294 633 9 41 22 92 27 114 6 21 7 42 2 47 -10 10 -189 -92 -297 -170 -128 -93 -223 -202 -300 -343 -40 -73 -122 -276 -159 -396 -23 -72 -103 -219 -114 -208 -2 2 5 30 16 62 42 125 106 520 117 719 6 96 11 122 46 210 22 55 47 136 57 181 l18 80 106 103 c59 57 120 125 137 151 51 80 134 349 159 517 13 87 15 430 2 437 -5 3 -31 -13 -57 -37 -203 -177 -317 -377 -375 -655 -15 -73 -19 -135 -19 -276 0 -165 -2 -188 -25 -261 -14 -44 -25 -93 -25 -110 0 -22 -3 -26 -9 -15 -6 8 -7 18 -5 22 3 5 -2 73 -11 151 -8 78 -20 194 -25 257 -5 63 -18 165 -29 225 -13 77 -21 180 -26 345 l-7 236 37 89 c82 199 96 253 102 373 11 227 -38 454 -151 697 -18 39 -38 87 -45 108 -40 119 -98 8 -152 -288 -18 -103 -21 -143 -16 -285 9 -254 38 -396 118 -569 38 -82 40 -88 37 -178 l-3 -92 -38 87 c-63 144 -204 427 -297 598 -60 111 -92 181 -100 220 -6 33 -19 82 -28 109 -12 40 -16 99 -17 295 -1 216 -4 254 -22 321 -59 213 -236 489 -387 604 -26 20 -54 34 -62 31 -25 -10 -12 -249 22 -414 36 -175 156 -441 271 -602 33 -47 68 -107 77 -133 9 -26 25 -66 36 -87 11 -22 16 -40 10 -40 -5 0 -10 4 -10 9 0 17 -72 116 -124 171 -29 30 -156 159 -282 285 -265 265 -318 334 -334 436 -36 232 -251 562 -450 694 -57 37 -294 155 -313 155 -34 0 78 -266 176 -417 106 -164 258 -320 401 -412 85 -55 116 -81 116 -94 0 -7 9 -23 20 -37 24 -31 26 -48 3 -28 -23 19 -180 108 -191 108 -5 0 -49 25 -98 56 -49 31 -107 65 -129 76 -22 11 -71 39 -110 63 -38 23 -106 61 -150 84 -70 37 -87 53 -140 123 -68 89 -206 227 -278 277 -61 41 -234 124 -305 145 -93 27 -326 58 -356 47 -52 -20 -36 -48 112 -192 239 -234 341 -288 705 -369 119 -26 193 -48 225 -66 26 -15 114 -67 196 -116 81 -49 170 -100 197 -114 27 -13 49 -26 49 -28 0 -14 -111 13 -187 45 -156 66 -362 92 -541 69 -108 -14 -339 -81 -372 -108 -21 -17 -21 -18 -3 -33 10 -9 70 -37 134 -63 90 -36 145 -51 250 -67 184 -28 285 -17 513 58 70 23 90 25 165 20 187 -14 342 -83 522 -236 79 -66 330 -311 319 -311 -4 0 -32 11 -61 24 -30 13 -79 31 -110 41 -43 14 -77 36 -145 96 -107 94 -153 121 -258 148 -105 28 -274 29 -326 3 -50 -24 -51 -56 -4 -123 128 -187 415 -274 648 -197 67 22 79 20 228 -44 86 -37 157 -99 296 -258 93 -107 141 -183 183 -287 16 -40 59 -132 96 -205 37 -73 70 -137 72 -142 2 -6 -23 14 -55 42 -47 42 -65 66 -87 121 -63 154 -322 412 -492 491 -92 43 -205 80 -244 80 -31 0 -51 -16 -51 -42 0 -28 72 -188 110 -243 44 -63 151 -171 210 -210 25 -16 68 -46 96 -66 83 -61 243 -137 306 -147 61 -9 89 -29 202 -137 79 -76 149 -221 196 -404 44 -173 66 -295 75 -411 3 -47 13 -140 21 -206 9 -67 14 -136 12 -154 -3 -30 -7 -26 -50 61 -41 81 -49 107 -57 186 -19 178 -122 428 -235 569 -95 119 -254 253 -318 269 -34 9 -65 -22 -59 -57 15 -98 56 -273 79 -338 78 -222 101 -251 407 -512 102 -87 111 -98 141 -168 18 -41 42 -120 54 -175 18 -85 20 -121 15 -240 -9 -218 -13 -248 -53 -475 -19 -105 -30 -149 -77 -323 -15 -56 -34 -102 -39 -95 -2 1 1 39 5 83 9 101 2 232 -18 355 -18 116 -12 180 26 269 52 119 49 169 -15 341 -48 130 -182 305 -267 350 l-46 25 -28 -21 c-61 -45 -88 -151 -80 -319 9 -197 76 -332 248 -500 l107 -104 12 -67 c7 -37 13 -130 14 -208 1 -268 -45 -429 -209 -731 -83 -153 -145 -258 -189 -315 -22 -30 -51 -70 -64 -90 -20 -29 -22 -31 -17 -10 3 14 12 57 21 95 8 39 33 105 55 147 50 98 62 132 104 294 82 318 68 577 -44 837 -37 85 -70 61 -135 -98 -89 -215 -117 -340 -119 -525 -2 -136 26 -294 79 -453 29 -87 29 -87 -15 -247 -52 -188 -89 -250 -270 -448 -105 -115 -445 -395 -543 -447 -26 -13 -49 -29 -53 -35 -3 -5 -11 -10 -16 -10 -6 0 5 22 25 49 20 27 44 66 54 87 9 22 46 66 81 99 150 142 293 362 358 550 13 39 30 113 38 165 16 104 20 337 6 359 -15 24 -45 3 -168 -117 -179 -175 -272 -336 -333 -577 -33 -129 -39 -171 -50 -322 -6 -97 -12 -121 -39 -176 -43 -87 -115 -174 -181 -219 -100 -68 -204 -126 -300 -166 -52 -22 -142 -62 -200 -89 -142 -67 -230 -96 -412 -138 -37 -8 -74 -18 -82 -21 -9 -3 -16 -2 -16 3 0 6 19 19 42 29 24 10 62 33 85 51 23 18 88 54 145 81 125 59 284 161 362 233 87 79 206 227 254 315 69 127 129 308 110 331 -17 21 -44 15 -151 -34 -257 -117 -463 -297 -586 -511 -58 -101 -141 -275 -141 -294 0 -7 -17 -26 -37 -43 -20 -16 -66 -54 -102 -83 -37 -29 -78 -60 -94 -68 -15 -8 -116 -32 -225 -53 -108 -22 -226 -47 -262 -56 -78 -20 -98 -19 -370 35 -229 46 -269 62 -403 169 -77 61 -91 79 -122 151 -36 84 -117 225 -185 320 -128 179 -269 298 -491 414 -176 93 -192 89 -160 -37 81 -325 409 -673 771 -817 19 -8 42 -22 51 -31 10 -10 47 -35 83 -56 70 -39 84 -58 39 -47 -115 26 -227 59 -338 100 -71 26 -154 55 -184 65 -30 11 -75 31 -100 46 -25 14 -99 54 -163 88 -128 69 -256 160 -284 202 -9 15 -37 52 -62 82 -24 30 -49 67 -54 83 -6 15 -14 28 -19 28 -5 0 -9 31 -9 69 0 96 -34 318 -66 426 -43 151 -175 387 -269 480 -96 97 -179 166 -194 163 -14 -3 -16 -25 -19 -143 -3 -159 6 -228 49 -370 69 -222 151 -350 355 -550 73 -71 108 -114 123 -149 12 -28 33 -64 46 -82 14 -18 25 -35 25 -38 0 -9 -90 45 -173 105 -92 65 -357 292 -485 414 -86 82 -172 201 -212 290 -19 45 -63 197 -77 267 -3 15 7 69 21 120 40 142 54 213 67 333 27 256 -14 468 -138 707 -38 74 -49 89 -67 86 -30 -4 -59 -69 -96 -213 -39 -150 -46 -264 -31 -447 11 -126 19 -160 61 -289 27 -80 65 -177 84 -215 20 -38 36 -78 36 -89 1 -11 9 -56 20 -100 10 -44 17 -81 16 -83 -5 -5 -121 160 -143 203 -11 22 -60 112 -108 200 -48 88 -101 196 -118 240 -62 166 -86 242 -97 310 -27 171 -1 505 40 505 23 0 114 87 172 163 118 154 168 290 167 452 0 131 -29 235 -78 280 -22 19 -22 19 -68 -5 -62 -33 -170 -141 -212 -212 -69 -119 -111 -253 -111 -359 0 -55 5 -77 30 -125 38 -72 42 -157 15 -314 -13 -80 -16 -138 -13 -247 3 -79 4 -143 2 -143 -13 0 -111 418 -140 590 -7 47 -14 126 -14 175 -1 50 -5 121 -9 160 -11 103 18 257 74 382 42 95 46 100 122 158 280 213 356 310 436 560 45 142 76 337 58 359 -8 9 -22 16 -31 16 -35 0 -166 -99 -260 -197 -179 -186 -287 -411 -310 -649 -7 -74 -15 -103 -44 -161 -20 -39 -43 -88 -50 -110 l-15 -38 0 45 c-1 48 23 340 40 483 18 147 91 409 147 528 54 113 78 142 192 241 60 51 86 67 128 76 93 21 204 74 327 156 213 144 339 296 380 461 15 59 15 69 2 82 -12 13 -23 13 -73 3 -183 -38 -287 -92 -417 -219 -123 -119 -288 -337 -304 -400 -5 -22 -153 -180 -153 -164 0 4 33 67 73 142 41 75 84 162 97 195 71 179 148 292 319 469 110 114 129 127 259 176 97 37 98 37 123 19 16 -12 57 -23 117 -30 132 -16 262 1 357 47 81 39 171 111 216 172 59 82 26 121 -120 144 -180 27 -328 -26 -492 -178 -54 -51 -82 -67 -179 -107 -63 -26 -122 -50 -130 -53 -8 -4 44 50 115 119 261 251 368 335 484 379 64 24 240 69 270 69 11 0 69 -16 128 -35 141 -46 284 -75 370 -75 109 0 334 51 447 101 141 62 140 78 -7 127 -154 52 -213 63 -382 69 -191 6 -304 -13 -450 -75 -49 -22 -115 -42 -144 -46 -55 -7 -54 -7 83 63 75 39 169 92 209 117 97 64 203 116 252 125 100 17 306 69 365 92 181 69 265 125 456 309 185 178 175 206 -61 168 -372 -59 -563 -171 -775 -453 -45 -60 -71 -85 -112 -106 -29 -15 -144 -79 -254 -143 -111 -64 -226 -129 -255 -144 -30 -15 -91 -53 -137 -85 -45 -33 -85 -59 -88 -59 -17 0 86 125 116 140 34 18 174 128 236 186 70 65 202 239 272 359 23 39 60 116 82 173 39 98 47 142 25 149 -5 1 -51 -17 -101 -41z m866 -140 c0 -3 -12 -11 -27 -19 -113 -59 -279 -150 -324 -179 -92 -59 -219 -125 -219 -114 0 15 281 187 381 234 185 87 189 88 189 78z m2455 -311 c76 -84 251 -335 234 -335 -4 0 -36 37 -70 83 -35 45 -85 106 -111 136 -42 46 -162 206 -207 275 -16 25 44 -37 154 -159z m-4527 -492 c-26 -82 -60 -191 -76 -243 -31 -97 -79 -239 -94 -275 -4 -11 -5 6 -1 40 10 99 191 625 215 625 2 0 -18 -66 -44 -147z m5410 24 c75 -193 150 -432 156 -492 l6 -60 -24 75 c-13 41 -39 113 -56 160 -18 47 -49 144 -70 215 -21 72 -45 149 -53 172 -29 84 2 31 41 -70z m753 -858 c16 -263 22 -560 11 -604 -10 -39 -10 -38 -11 26 -1 36 -5 122 -10 190 -16 202 -19 571 -6 557 3 -3 10 -79 16 -169z m-6902 -60 c1 -80 -6 -215 -14 -300 -8 -85 -14 -178 -14 -207 1 -90 -9 -69 -16 35 -5 57 -3 165 4 258 6 88 14 214 18 280 8 158 21 121 22 -66z m961 -43 c0 -2 -17 -15 -37 -27 -80 -50 -252 -184 -328 -258 -86 -83 -205 -178 -205 -164 0 11 188 195 255 249 56 46 294 204 307 204 4 0 8 -2 8 -4z m5167 -118 c86 -59 383 -309 383 -324 0 -17 -204 138 -305 231 -27 25 -85 73 -127 106 -43 33 -78 62 -78 65 0 7 9 1 127 -78z m1278 -888 c-9 -34 -25 -85 -37 -113 -11 -29 -54 -150 -94 -271 -100 -294 -113 -317 -65 -114 29 121 62 216 122 353 17 39 43 103 57 142 14 40 27 71 29 69 2 -2 -3 -32 -12 -66z m-7915 27 c0 -11 24 -80 101 -289 29 -78 103 -368 95 -375 -5 -5 -101 271 -132 381 -14 50 -36 125 -49 166 -29 93 -38 143 -25 135 6 -3 10 -12 10 -18z m946 -29 c-9 -13 -39 -68 -66 -123 -71 -144 -113 -216 -201 -343 -43 -61 -85 -124 -93 -140 -8 -15 -15 -20 -16 -12 0 8 10 31 22 50 12 19 53 91 91 160 38 69 88 154 111 190 115 176 158 240 163 240 3 0 -2 -10 -11 -22z m7082 -1235 c-20 -26 -57 -86 -83 -132 -27 -46 -75 -117 -107 -157 -31 -40 -77 -104 -100 -141 -47 -75 -149 -205 -156 -199 -2 2 13 31 34 63 21 32 64 100 96 151 60 96 109 166 216 305 35 45 78 101 95 124 17 24 33 41 35 38 2 -2 -11 -26 -30 -52z m-8058 -136 c33 -42 72 -94 88 -115 84 -109 143 -193 172 -247 19 -33 46 -76 62 -96 15 -20 28 -40 28 -44 0 -19 -50 41 -147 175 -57 80 -123 168 -146 195 -42 49 -177 259 -177 273 1 10 50 -48 120 -141z m1104 -1027 c17 -177 21 -404 5 -320 -32 171 -49 351 -48 497 l2 158 12 -85 c8 -47 21 -159 29 -250z m5789 143 c-1 -129 -25 -387 -43 -463 -6 -25 -8 3 -9 95 -1 123 36 521 48 510 2 -3 4 -67 4 -142z m-6555 -364 c64 -38 153 -100 198 -137 45 -37 127 -100 183 -141 56 -41 99 -76 96 -79 -2 -3 -19 6 -37 20 -18 14 -62 39 -98 57 -36 18 -85 50 -110 70 -25 21 -110 86 -190 146 -218 162 -227 176 -42 64z m7380 43 c-41 -51 -305 -240 -468 -337 -36 -21 -81 -49 -100 -63 l-35 -25 30 32 c49 53 355 274 466 336 34 20 75 47 91 60 39 33 45 32 16 -3z m-1478 -509 c-18 -54 -52 -143 -77 -198 -55 -124 -185 -387 -189 -382 -7 6 111 299 167 417 34 69 71 153 85 188 27 72 34 85 41 78 3 -2 -9 -49 -27 -103z m-4520 30 c13 -32 52 -116 88 -188 64 -128 175 -395 168 -402 -5 -5 -114 200 -151 282 -55 122 -107 252 -126 310 -22 70 -22 68 -10 61 5 -3 19 -32 31 -63z m5300 -638 c0 -2 -21 -11 -47 -19 -27 -8 -73 -25 -103 -39 -30 -13 -80 -30 -110 -37 -30 -7 -91 -27 -135 -45 -96 -40 -166 -60 -265 -79 -62 -12 -72 -12 -57 -1 11 7 38 17 60 21 23 3 76 24 118 45 42 22 86 39 97 39 11 0 58 13 104 29 46 17 103 35 128 41 25 5 74 19 110 29 66 19 100 25 100 16z m-5938 -36 c62 -17 154 -42 203 -55 78 -21 155 -45 375 -118 60 -20 21 -20 -72 -1 -167 35 -685 205 -625 205 4 0 57 -14 119 -31z m1702 -178 c44 -51 90 -105 100 -120 11 -14 62 -70 115 -123 53 -54 92 -98 88 -98 -15 0 -193 159 -253 227 -33 37 -87 104 -119 148 -32 44 -73 95 -89 114 -27 30 -24 29 23 -10 29 -24 90 -86 135 -138z m2514 87 c-79 -100 -247 -274 -345 -357 -71 -60 -87 -54 -19 6 25 22 74 75 109 119 60 74 308 324 322 324 3 0 -27 -41 -67 -92z m-2458 -717 c0 -21 -257 -38 -602 -40 -164 -1 -248 1 -244 8 4 5 42 10 86 10 44 0 86 4 93 8 6 4 152 11 322 14 171 3 318 6 328 7 9 1 17 -2 17 -7z m2957 -18 c163 -18 92 -24 -207 -19 -345 6 -461 13 -475 27 -12 12 559 5 682 -8z" fill="#9b5634"/>
<path d="M3045 6698 c-11 -105 -3 -232 15 -236 10 -1 22 14 33 41 24 58 52 83 120 107 43 15 70 18 116 14 l60 -7 6 -41 c4 -22 5 -205 3 -406 -3 -357 -3 -366 -26 -407 -15 -29 -29 -43 -42 -43 -13 0 -20 -7 -20 -20 0 -19 7 -20 171 -20 157 0 170 1 167 17 -2 10 -15 24 -30 31 -14 7 -31 26 -37 45 -15 41 -26 816 -13 835 6 9 35 14 88 15 70 1 85 -2 126 -26 50 -29 82 -67 99 -117 6 -16 17 -30 24 -30 23 0 35 283 12 306 -3 4 -20 -5 -37 -20 l-32 -26 -362 0 -363 0 -23 25 c-37 39 -48 32 -55 -37z" fill="#9b5634"/>
<path d="M6490 6716 c-151 -41 -224 -96 -305 -233 -52 -89 -68 -166 -63 -308 4 -103 8 -128 31 -178 30 -66 96 -155 155 -209 139 -128 428 -156 619 -60 103 52 200 174 245 307 17 51 19 79 16 190 -5 145 -20 203 -80 299 -111 177 -370 257 -618 192z m287 -97 c101 -48 206 -191 232 -317 25 -122 6 -268 -51 -374 -73 -137 -291 -212 -425 -147 -59 28 -136 99 -168 154 -14 22 -36 85 -51 139 -33 125 -31 257 5 349 25 64 103 152 161 182 92 49 214 54 297 14z" fill="#9b5634"/>
<path d="M4087 6714 c-9 -9 4 -34 18 -34 7 0 21 -12 31 -27 18 -26 19 -57 22 -451 l3 -423 -29 -27 c-17 -15 -37 -33 -46 -40 -9 -7 -14 -17 -11 -23 4 -5 84 -9 186 -9 157 0 179 2 179 16 0 9 -13 21 -29 27 -15 5 -33 19 -40 29 -24 38 -41 161 -41 294 l0 134 275 0 c238 0 275 -2 275 -15 0 -8 -4 -15 -8 -15 -5 0 -12 -73 -15 -162 -7 -176 -23 -252 -58 -263 -10 -4 -19 -15 -19 -26 0 -18 9 -19 175 -19 101 0 175 4 175 9 0 12 -26 38 -50 51 -36 19 -42 94 -38 490 3 409 5 422 62 448 14 6 26 18 26 27 0 23 -335 23 -344 0 -4 -10 3 -19 18 -25 14 -5 36 -29 50 -53 25 -42 26 -50 26 -200 l0 -157 -274 0 -274 0 -1 123 c-1 143 18 254 45 273 32 22 44 34 44 44 0 11 -322 14 -333 4z" fill="#9b5634"/>
<path d="M5310 6701 c0 -11 9 -23 20 -26 35 -11 48 -47 60 -165 13 -132 8 -626 -7 -708 -9 -50 -32 -81 -60 -82 -7 0 -13 -9 -13 -20 0 -20 7 -20 298 -20 247 0 301 3 319 15 22 15 27 39 39 173 6 61 4 72 -9 72 -8 0 -20 -13 -25 -29 -13 -37 -63 -75 -143 -107 -53 -22 -75 -25 -137 -22 -50 2 -76 8 -82 18 -5 8 -10 95 -10 193 l0 177 67 0 c56 0 73 -4 106 -27 21 -15 43 -37 48 -50 12 -31 35 -29 43 5 3 15 9 78 12 140 6 93 5 112 -7 112 -8 0 -19 -10 -24 -22 -14 -32 -115 -68 -187 -68 l-58 0 0 184 0 184 83 6 c112 9 173 -7 205 -54 13 -19 31 -35 40 -35 14 0 17 13 20 88 l3 87 -301 0 c-290 0 -300 -1 -300 -19z" fill="#9b5634"/>
<path d="M5012 5454 c-84 -31 -142 -110 -142 -195 0 -15 12 -48 26 -74 l27 -47 -52 -45 c-65 -57 -81 -88 -88 -171 -5 -64 -4 -70 28 -117 51 -75 101 -98 219 -103 79 -3 105 0 153 18 31 12 70 32 85 45 l28 24 67 -34 c96 -48 166 -61 242 -43 47 10 60 17 60 32 0 16 -9 19 -61 21 -45 2 -81 11 -133 35 -103 48 -107 54 -82 129 11 34 25 98 31 143 14 97 21 113 60 133 17 9 30 20 30 25 0 16 -255 13 -269 -3 -13 -16 -5 -27 20 -27 39 0 49 -26 49 -134 0 -56 -2 -105 -5 -108 -7 -6 -298 287 -309 311 -14 31 2 88 31 111 34 26 95 26 138 0 31 -19 50 -51 57 -95 2 -11 10 -20 18 -20 12 0 16 18 18 88 3 87 3 87 -24 98 -50 18 -175 20 -222 3z m102 -480 c64 -64 115 -122 113 -128 -7 -22 -68 -54 -116 -61 -70 -10 -129 9 -173 56 -34 36 -38 45 -38 94 0 49 4 59 43 104 23 27 45 50 49 50 3 1 58 -51 122 -115z" fill="#9b5634"/>
<path d="M5159 4580 c-146 -18 -311 -115 -386 -227 -68 -103 -91 -262 -54 -390 19 -64 87 -180 136 -228 151 -151 409 -188 629 -91 l56 25 1 143 c0 162 10 206 52 226 20 10 27 20 25 35 -3 22 -6 22 -178 22 -168 0 -175 -1 -175 -20 0 -12 11 -25 30 -34 65 -30 65 -30 65 -197 l0 -153 -35 -7 c-20 -3 -62 -4 -94 -2 -102 7 -256 120 -311 228 -55 108 -63 218 -25 339 46 144 152 229 299 239 59 4 79 1 112 -16 69 -35 129 -113 158 -204 3 -10 15 -18 26 -18 19 0 20 6 20 143 l0 143 -92 22 c-115 28 -174 33 -259 22z" fill="#9b5634"/>
<path d="M6168 4580 c-66 -11 -146 -38 -187 -63 -117 -71 -208 -179 -243 -292 -27 -82 -21 -268 9 -335 60 -131 199 -248 339 -285 122 -32 299 -8 409 55 217 124 298 440 175 685 -44 86 -82 123 -186 181 -81 46 -223 69 -316 54z m133 -105 c98 -35 193 -138 234 -256 21 -59 25 -194 9 -280 -23 -120 -66 -175 -183 -234 -49 -24 -63 -27 -130 -23 -162 10 -258 100 -322 303 -51 162 4 356 125 444 83 59 181 76 267 46z" fill="#9b5634"/>
<path d="M7120 4583 c-143 -24 -230 -109 -245 -240 -6 -54 -4 -69 18 -117 25 -55 92 -131 144 -163 81 -51 195 -138 222 -169 71 -80 22 -189 -96 -214 -101 -22 -195 30 -244 134 -16 34 -29 67 -29 74 0 6 -10 12 -22 12 -21 0 -21 -2 -14 -112 4 -62 9 -130 12 -150 6 -36 8 -37 58 -42 156 -18 299 -10 362 20 51 24 111 86 134 137 25 55 26 148 1 202 -23 49 -136 159 -216 210 -84 53 -163 121 -181 157 -23 44 -11 90 32 127 47 42 117 44 180 4 43 -27 59 -50 89 -126 8 -23 20 -37 27 -35 16 6 30 118 26 208 l-3 64 -95 13 c-99 12 -118 13 -160 6z" fill="#9b5634"/>
<path d="M3935 4556 c-86 -28 -106 -38 -172 -88 -62 -47 -145 -170 -167 -248 -22 -78 -21 -162 3 -253 55 -207 156 -315 341 -363 87 -22 251 -14 330 15 119 45 230 147 283 259 31 65 32 71 32 202 0 124 -2 141 -29 213 -48 132 -155 224 -315 273 -73 22 -223 17 -306 -10z m278 -99 c55 -33 124 -101 146 -146 10 -20 28 -67 41 -105 19 -59 22 -83 18 -170 -11 -211 -102 -328 -279 -357 -82 -13 -142 1 -218 52 -64 42 -121 116 -146 189 -20 58 -24 237 -6 310 27 112 93 194 194 241 61 29 189 22 250 -14z" fill="#9b5634"/>
<path d="M2850 4550 c0 -13 10 -24 25 -30 54 -21 58 -52 59 -430 1 -372 -3 -406 -50 -437 -13 -8 -24 -24 -24 -34 0 -18 13 -19 268 -21 147 -1 287 -2 312 -3 l45 0 7 60 c4 33 11 78 17 100 17 64 14 95 -8 95 -12 0 -21 -9 -25 -24 -10 -39 -70 -84 -145 -106 -81 -25 -203 -31 -223 -12 -10 10 -13 91 -13 380 0 202 3 378 7 392 4 14 21 33 38 42 16 9 30 24 30 33 0 13 -22 15 -160 15 -154 0 -160 -1 -160 -20z" fill="#9b5634"/>
</g>
</svg>