<svg version="1.1" id="Ebene_1" xmlns="http://www.w3.org/2000/svg" x="0" y="0" width="180" height="180" viewBox="0 0 180 180" xml:space="preserve"><style>.cls-2{fill:#f0e8dc}</style><path d="M90 0a90 90 0 1 0 90 90A90 90 0 0 0 90 0" style="fill:#ae1022;fill-rule:evenodd"/><path class="cls-2" d="M90 177.33A87.33 87.33 0 1 1 177.33 90 87.43 87.43 0 0 1 90 177.33M90 4.6A85.4 85.4 0 1 0 175.4 90 85.5 85.5 0 0 0 90 4.6"/><path class="cls-2" d="M124.76 52.21a12.7 12.7 0 0 0-5.1-3 8.9 8.9 0 0 0 3.46-1.21 10 10 0 0 0 4.14-5.27 10 10 0 0 0-10.34 6 19 19 0 0 0 3.29-1.43 18.2 18.2 0 0 0 3.71-2.59s0 .27-1.69 1.61c-2.49 2-3.82 2.63-5.32 2.67a22.8 22.8 0 0 0-9.87-2.33 12.63 12.63 0 0 0 7.38-12.1 12.51 12.51 0 0 0-9.36 11.76 23.6 23.6 0 0 0 3.2-3.19 23 23 0 0 0 3.16-4.74A10 10 0 0 1 110.2 41a35 35 0 0 1-4.35 5.63 23.5 23.5 0 0 0-9.56 2.53 17.3 17.3 0 0 0 3.75-19.47 17.27 17.27 0 0 0-6.54 9.54c-1 3.75-.07 6.84 1.27 10.19.55-1.3.92-3 1.85-6.14a49.3 49.3 0 0 0 1.78-7.93 21 21 0 0 1-.5 4.15c-.45 2.87-1.84 7.84-2.49 10.11a30.5 30.5 0 0 0-5.14 3.57A29 29 0 0 0 87.41 56a18.28 18.28 0 0 0-2.28-21.09 18.26 18.26 0 0 0-3.56 11.7c.19 4.1 2.11 6.92 4.53 9.87.14-1.49 0-3.36-.09-6.78a52 52 0 0 0-.74-8.57 22.4 22.4 0 0 1 .82 4.34c.47 3.12.66 8.8.72 11.19a26.83 26.83 0 0 0-6.19 16 18.8 18.8 0 0 0-5.46-9.48c-.22-1.8-.69-5.94-.68-8.26a16.7 16.7 0 0 1 .13-3.29A39 39 0 0 0 75 58c.34 2.52.41 3.92.67 5 1.46-2.44 2.57-4.73 2.26-7.77A13.6 13.6 0 0 0 74.05 47a13.63 13.63 0 0 0 .47 15.6 19 19 0 0 0-2.06-1.51 17.8 17.8 0 0 0-5-2.24c-.7-1.54-2.08-4.64-2.66-6.48a14.6 14.6 0 0 1-.8-2.75 34 34 0 0 0 2 5.23c1 2 1.38 3.16 1.89 4 .57-2.42.89-4.63-.18-7.08a11.9 11.9 0 0 0-5.44-5.83 11.91 11.91 0 0 0 4.41 12.78 12.3 12.3 0 0 0-6 .17c-1.25.11-2.48-.39-4.8-1.89-1.6-1-1.64-1.28-1.64-1.28a16.2 16.2 0 0 0 3.52 2 16.7 16.7 0 0 0 3 1 8.87 8.87 0 0 0-9.71-4.39 8.92 8.92 0 0 0 4.14 4.31 8 8 0 0 0 3.72.76 8.64 8.64 0 0 0-3.83 2.53 9.4 9.4 0 0 0-2.51 5.78 9.4 9.4 0 0 0 5.59-2.91 7.84 7.84 0 0 0 2-5.05A12.5 12.5 0 0 0 57.75 62c-1.81 1.93-2.89 3.36-2.89 3.36a11.6 11.6 0 0 1 1.3-1.87c1-1.34 2.75-3.52 4.33-4.26a16.2 16.2 0 0 1 6.95.85 12.82 12.82 0 0 0-8.66 12.52A12.8 12.8 0 0 0 66 67.87c1.75-2.29 2-4.68 2-7.35-.75.74-1.49 1.83-3 3.69a36.6 36.6 0 0 0-3.46 4.94A16 16 0 0 1 63 66.44c1.14-1.88 3.57-5 4.63-6.33.64.2 1.32.43 2 .72a13.1 13.1 0 0 1 4.74 3.32 14.05 14.05 0 0 0-8.54 14 14 14 0 0 0 7.63-5.5 11.72 11.72 0 0 0 1.85-7.42C79.14 70 80.55 76.77 81 79.34v.09c.28 1.7.43 2.68.43 2.68l.15-2.6c.25-4.4 1.19-13.46 5.59-20.44.43 3.8 1.17 7.18 4 10.23a19.2 19.2 0 0 0 11.39 6A19.22 19.22 0 0 0 88 57.87a19.4 19.4 0 0 1 6.3-5.75c.65-.36 1.29-.69 1.92-1 1.61 1.71 5.14 5.52 6.87 7.87a21 21 0 0 1 2.34 3.46 49.3 49.3 0 0 0-5.21-6.24c-2.25-2.32-3.37-3.7-4.46-4.6.35 3.59.93 6.77 3.54 9.64a17.27 17.27 0 0 0 10.19 5.48A17.27 17.27 0 0 0 96.52 51a32 32 0 0 1 9.12-2.84c2.13 1.05 4.37 4.11 5.71 5.94a16 16 0 0 1 1.79 2.64s-1.49-2-4-4.76a17.5 17.5 0 0 0-3.38-3.27c.26 2.74.69 4.92 2.68 7.12a13.18 13.18 0 0 0 7.79 4.17 13.18 13.18 0 0 0-3.41-8.14c-1.64-1.81-3.89-3.51-6.28-3.82A22.8 22.8 0 0 1 117 49c2.3.86 5 3.74 6.53 5.52a16 16 0 0 1 2 2.47s-1.66-1.88-4.39-4.39a17.5 17.5 0 0 0-3.66-3c.51 2.71 1.12 4.84 3.3 6.85a13.18 13.18 0 0 0 8.11 3.55 13.18 13.18 0 0 0-4.13-7.79M72.23 68.7a40 40 0 0 0-3.54 5.59 17.3 17.3 0 0 1 1.52-3c1.07-2 3.3-5.12 4.49-6.78l.34.4c-.69.78-1.44 1.95-2.81 3.79m23.11-2C97.9 70.16 98 70.56 98 70.56a55 55 0 0 0-5.87-6.89c-2.37-2.4-3.63-3.89-4.78-4.88l.41-.61c1.85 1.94 5.68 6.02 7.58 8.56ZM16.75 93.59c0-3.17-.06-3.66-1.81-3.81l-.76-.06c-.18-.12-.12-.67.06-.76 1.48.06 2.45.09 3.81.09 1.18 0 2.21 0 3.51-.09.18.09.24.63.06.76l-.57.06c-1.75.18-1.81.63-1.81 3.81v3.48c0 .57.06 1.15.39 1.15a1.7 1.7 0 0 0 .85-.33c.42-.36 1.21-1.15 1.54-1.45l3.26-3.23a34 34 0 0 0 2.36-2.51.9.9 0 0 0 .21-.48c0-.12-.12-.21-.51-.3l-.82-.18a.51.51 0 0 1 .06-.76c1.06.06 2.27.09 3.33.09s2.09 0 3-.09a.56.56 0 0 1 .06.76 7.5 7.5 0 0 0-2.81.85 30.3 30.3 0 0 0-4.23 3.51l-2.72 2.57c-.42.42-.7.7-.7.94s.18.45.57.94c2.87 3.29 5.2 6 7.56 8.49a3.77 3.77 0 0 0 2.36 1.21l.82.09a.53.53 0 0 1-.06.76c-.79-.06-2-.09-3.39-.09-1.24 0-2.3 0-3.69.09-.21-.06-.3-.57-.12-.76l.7-.12c.42-.06.73-.15.73-.3s-.21-.42-.42-.7c-.57-.73-1.36-1.54-2.51-2.84l-2.42-2.72c-1.72-1.93-2.21-2.54-2.93-2.54-.45 0-.51.39-.51 1.45v3.9c0 3.17.06 3.6 1.75 3.78l.82.09c.18.12.12.67-.06.76-1.45-.1-2.48-.1-3.71-.1s-2.27 0-3.51.09a.58.58 0 0 1-.06-.76l.6-.09c1.6-.24 1.66-.6 1.66-3.78Zm39.69 10.28c0 .91 0 4.5.09 5.29a.55.55 0 0 1-.57.33c-.36-.51-1.24-1.57-3.87-4.56l-7-8c-.82-.94-2.87-3.42-3.51-4.08h-.06a7.7 7.7 0 0 0-.15 2v6.59c0 1.42 0 5.35.54 6.26.18.33.79.51 1.54.57l.94.09a.55.55 0 0 1-.06.76C43 109 41.9 109 40.78 109c-1.27 0-2.09 0-3.14.09a.56.56 0 0 1-.06-.76l.82-.09c.7-.09 1.18-.27 1.33-.6.42-1.09.39-4.78.39-6.23v-8.73a2.77 2.77 0 0 0-.66-2.18 3.28 3.28 0 0 0-1.87-.73l-.51-.06a.53.53 0 0 1 .06-.76c1.27.09 2.87.09 3.42.09a10 10 0 0 0 1.37-.04c.6 1.54 4.17 5.53 5.17 6.65l2.9 3.26c2.09 2.33 3.57 4 5 5.47h.06a3 3 0 0 0 .12-1.27v-6.47c0-1.42 0-5.35-.6-6.26-.18-.27-.67-.45-1.87-.6l-.51-.06c-.21-.18-.18-.67.06-.76 1.39.06 2.42.09 3.57.09 1.3 0 2.09 0 3.11-.09a.53.53 0 0 1 .06.76l-.42.06c-1 .15-1.57.39-1.69.63-.51 1.09-.45 4.84-.45 6.23Zm7.95-4.63a10.45 10.45 0 0 1 10.76-10.67c7 0 10.49 5 10.49 10.37a10.32 10.32 0 0 1-10.49 10.55c-6.71 0-10.76-4.81-10.76-10.25m18.23.63c0-5-2.21-10.37-8-10.37-3.14 0-7.22 2.15-7.22 8.77 0 4.47 2.18 10.28 8.13 10.28 3.64 0 7.09-2.72 7.09-8.67Zm14.21 9.62a9.43 9.43 0 0 1-4.72-1.12 14 14 0 0 1-.82-4.23c.15-.21.6-.27.73-.09.45 1.54 1.69 4.5 5.2 4.5a3.43 3.43 0 0 0 3.78-3.48 4.54 4.54 0 0 0-2.48-4.23L95.65 99c-1.51-1-3.26-2.72-3.26-5.2 0-2.87 2.24-5.2 6.17-5.2a11.7 11.7 0 0 1 2.81.39 4 4 0 0 0 1.06.18 13.2 13.2 0 0 1 .54 3.69c-.12.18-.6.27-.76.09-.39-1.45-1.21-3.42-4.11-3.42s-3.6 2-3.6 3.36c0 1.75 1.45 3 2.57 3.72l2.42 1.51c1.9 1.18 3.78 2.93 3.78 5.8-.01 3.3-2.51 5.57-6.44 5.57m17.8 0a9.43 9.43 0 0 1-4.72-1.12 14 14 0 0 1-.82-4.23c.15-.21.6-.27.73-.09.45 1.54 1.69 4.5 5.2 4.5a3.43 3.43 0 0 0 3.78-3.48 4.54 4.54 0 0 0-2.48-4.23L113.45 99c-1.51-1-3.26-2.72-3.26-5.2 0-2.87 2.24-5.2 6.17-5.2a11.7 11.7 0 0 1 2.81.39 4 4 0 0 0 1.06.18 13.2 13.2 0 0 1 .54 3.69c-.12.18-.6.27-.76.09-.39-1.45-1.21-3.42-4.11-3.42s-3.6 2-3.6 3.36c0 1.75 1.45 3 2.57 3.72l2.42 1.51c1.9 1.18 3.78 2.93 3.78 5.8 0 3.3-2.51 5.57-6.44 5.57m12.43-10.25a10.45 10.45 0 0 1 10.76-10.67c7 0 10.49 5 10.49 10.37a10.32 10.32 0 0 1-10.49 10.55c-6.71 0-10.76-4.81-10.76-10.25m18.23.63c0-5-2.21-10.37-8-10.37-3.14 0-7.22 2.15-7.22 8.77 0 4.47 2.18 10.28 8.13 10.28 3.64 0 7.08-2.72 7.08-8.67Zm14.2 9.62a9.43 9.43 0 0 1-4.72-1.12 14 14 0 0 1-.82-4.23c.15-.21.6-.27.73-.09.45 1.54 1.69 4.5 5.2 4.5a3.43 3.43 0 0 0 3.78-3.48 4.54 4.54 0 0 0-2.48-4.23L158.31 99c-1.51-1-3.26-2.72-3.26-5.2 0-2.87 2.24-5.2 6.17-5.2a11.7 11.7 0 0 1 2.78.4 4 4 0 0 0 1.06.18 13.2 13.2 0 0 1 .54 3.69c-.12.18-.6.27-.76.09-.39-1.45-1.21-3.42-4.11-3.42s-3.6 2-3.6 3.36c0 1.75 1.45 3 2.57 3.72l2.42 1.51c1.9 1.18 3.78 2.93 3.78 5.8.03 3.29-2.48 5.56-6.41 5.56m-96.78 16.32h-1v-9.15h1.5a3.86 3.86 0 0 1 2.27.49 2.52 2.52 0 0 1 1 2.09 2.57 2.57 0 0 1-.87 2 3.3 3.3 0 0 1-2.17.61h-.74Zm0-4.95h.68c1.13 0 2.09-.34 2.09-1.65 0-1.49-1.2-1.6-2.39-1.6h-.38Zm9.12 2.36-1.1 2.6h-1.12l4.22-9.58 4.11 9.58h-1.13l-1.08-2.6Zm2-4.61-1.56 3.66h3.09Zm9.76 6.26h2.52v.95h-3.54v-9.15h1Zm8.54-1.65-1.1 2.6h-1.12l4.22-9.58 4.11 9.58h-1.12l-1.12-2.6Zm2-4.61-1.57 3.66h3.09Zm12.87-.16a1.68 1.68 0 0 0-1.58-1 1.45 1.45 0 0 0-1.52 1.42c0 .79.81 1.15 1.43 1.43l.61.27c1.19.52 2.2 1.12 2.2 2.57a2.89 2.89 0 0 1-5.73.46l1-.28a1.89 1.89 0 0 0 1.83 1.7 1.84 1.84 0 0 0 1.88-1.78c0-1.07-.84-1.43-1.69-1.82l-.56-.24c-1.07-.49-2-1-2-2.34a2.4 2.4 0 0 1 2.56-2.33 2.63 2.63 0 0 1 2.37 1.42Zm8.72 7.36h-1v-8.2h-2.22v-.95h5.5v.95h-2.23Zm-90.33 15.25.26-.21c.58.58.7.61 1.38 0l2.07-1.69c.62-.51.65-.58.25-1.26l.24-.2a8 8 0 0 0 1.56 1.11l-3.47 2.84c-.69.56-.69.68-.22 1.37l-.26.21Zm6.35-4.29a.67.67 0 0 1 .94.09.65.65 0 0 1-.11.93.67.67 0 0 1-.93-.09.68.68 0 0 1 .1-.93m3.17 14.47.23-.24c.61.47.75.53 1.38-.14l1.5-1.57c.64-.67.8-1.32.21-1.88a2.47 2.47 0 0 0-1.52-.51 3 3 0 0 1-.35.42l-1.75 1.84c-.56.59-.53.73-.07 1.28l-.23.24-2-1.92.23-.25c.64.5.77.53 1.36-.09l1.54-1.62c.65-.69.79-1.32.2-1.87a2.46 2.46 0 0 0-1.49-.49L32 146.66c-.58.61-.55.75-.14 1.24l-.23.25-2-1.89.23-.25c.67.53.81.56 1.4-.05l1.9-1.96c.57-.6.59-.68.12-1.28l.21-.22a8 8 0 0 0 1.68.86l-.73.76c.32.06.68.08 1.14.18a1.93 1.93 0 0 1 1 .46 1.59 1.59 0 0 1 .31 1.78 12 12 0 0 1 1.29.21 1.8 1.8 0 0 1 .95.44c.72.69.7 1.66-.17 2.58l-1.73 1.82c-.6.63-.57.73-.08 1.31l-.23.25Zm15.62 11.07c-.31-1.49-.57-3.12-.88-4.89-.09-.46-.22-.58-.43-.66L48 158.9c-.57 1-.52 1.12.38 1.73l-.18.31-2.92-1.71.18-.31c.89.43 1 .4 1.6-.57l2.57-4.4c.6-1 .54-1.13-.31-1.72l.18-.31 2.9 1.69-.18.31c-.9-.44-1.06-.42-1.65.57l-1.15 2a2.1 2.1 0 0 0 1.08 0 30 30 0 0 0 3-.9c.57-.21.63-.33.16-.68l-.24-.18.18-.31 2.7 1.57-.18.31a2.82 2.82 0 0 0-2.31-.22c-.67.14-1.94.48-3.14.8.22 1.56.65 3.66.85 4.6s.39 1.22.89 1.6l-.18.31Zm8.75 4.29a1 1 0 0 1-.46-.48 1.24 1.24 0 0 1-.06-.65 4.1 4.1 0 0 1-1.74.17 1.57 1.57 0 0 1-.82-2.07 1.3 1.3 0 0 1 1.47-.77 9.3 9.3 0 0 0 2.18 0l.09-.2c.37-.87.17-1.52-.44-1.78a.76.76 0 0 0-.63 0 2.2 2.2 0 0 0-.68.64.37.37 0 0 1-.46.13.61.61 0 0 1-.3-.73c.07-.17.28-.25.57-.32a6 6 0 0 1 2.15-.08 1.7 1.7 0 0 1 .84.74 1.92 1.92 0 0 1-.09 1.7l-.9 2.21c-.23.54-.09.81.11.9a1 1 0 0 0 .49.05v.36Zm.41-3.39H58.4c-.56 0-.92.13-1.11.58a1 1 0 0 0 .46 1.27 1.7 1.7 0 0 0 1.14 0Zm6.31 5.57a1.3 1.3 0 0 1-.57 0c-.78-.25-1.06-.88-.75-1.86l1.14-3.59L65 163v-.15l.46-.25.56.18.28-.89 1.07-.57.17.08-.54 1.7 1.4.44a.36.36 0 0 1-.23.47l-1.33-.42-1 3.17c-.32 1 0 1.32.35 1.42a1.74 1.74 0 0 0 .82 0v.36Zm7.92 1.99.07-.33c.75.07.87 0 1-.81l.43-2.12c.21-1-.08-1.65-.93-1.82a1.83 1.83 0 0 0-1.46.38l-.62 3c-.17.82-.12.92.63 1.15l-.07.33-2.67-.55.08-.33c.78.09.9 0 1.07-.8l1.24-6.08c.16-.8.15-.86-.68-1.11l.06-.31a14 14 0 0 0 2-.06l-.87 4.28a2.87 2.87 0 0 1 2-.56c1 .21 1.63 1 1.31 2.54l-.51 2.26c-.17.84-.08.94.64 1.15l-.07.33Zm10.65 1.56A1 1 0 0 1 84 172a1.24 1.24 0 0 1-.26-.6 4.1 4.1 0 0 1-1.6.7 1.57 1.57 0 0 1-1.42-1.71c.05-.63.42-1 1.16-1.19a9.3 9.3 0 0 0 2.08-.67v-.22c.08-.95-.32-1.5-1-1.56a.76.76 0 0 0-.6.2 2.2 2.2 0 0 0-.45.82.37.37 0 0 1-.4.27.61.61 0 0 1-.51-.6c0-.18.18-.32.45-.48a5.9 5.9 0 0 1 2-.74 1.7 1.7 0 0 1 1 .44 1.92 1.92 0 0 1 .45 1.64l-.2 2.4c0 .58.17.8.39.82a1 1 0 0 0 .48-.1l.1.35ZM83.9 169c-.28.12-.93.34-1.21.45-.52.19-.83.41-.87.89a1 1 0 0 0 .84 1.06 1.7 1.7 0 0 0 1.08-.38Zm7.16-1.12c.38-.67.93-1.41 1.55-1.42a.67.67 0 0 1 .36 1.28c-.16.07-.26.06-.34 0a.77.77 0 0 0-.56-.25c-.34 0-.75.39-1 1.12v2.38c0 .86.08.93 1.08 1v.34h-3V172c.8-.09.89-.17.88-1v-2.69c0-.86-.07-.91-.82-1V167a8 8 0 0 0 1.82-.55v1.42Zm6.07 4.12v-.34c.81-.16.89-.25.8-1.13l-.27-2.67c-.08-.8-.13-.86-.92-.9v-.31a8 8 0 0 0 1.79-.69l.45 4.46c.09.88.19.95 1 .94v.34Zm-.13-7.62a.67.67 0 0 1 .59-.74.65.65 0 0 1 .72.61.67.67 0 0 1-.59.73.68.68 0 0 1-.72-.6m10.34 6.13-.07-.33c.73-.23.8-.35.62-1.23l-.44-2.13c-.18-.88-.61-1.39-1.46-1.21a2.33 2.33 0 0 0-1.25.94l.62 3c.18.87.27.9 1 .82l.07.33-2.76.57-.07-.33c.85-.27.9-.35.72-1.19l-.54-2.62c-.17-.81-.26-.85-1-.83l-.06-.29a8.5 8.5 0 0 0 1.66-.88l.21 1c.21-.24.46-.49.73-.77a2 2 0 0 1 1-.6c1-.21 1.79.37 2 1.59l.51 2.46c.18.87.27.9 1 .82l.07.33Zm10.55-4.14a3 3 0 0 1-1.62 1.85 2.57 2.57 0 0 1-3.28-1.83 3.37 3.37 0 0 1 .1-2.43 2.68 2.68 0 0 1 1.5-1.5 2 2 0 0 1 2.47 1.26c.08.25.07.36-.15.49s-1.7.74-3.16 1.29c.57 1.67 1.77 2 2.64 1.75a2.15 2.15 0 0 0 1.21-1.09Zm-4.23-1.4c.69-.23 1.38-.47 2.08-.73.22-.07.28-.16.21-.35a1.19 1.19 0 0 0-1.51-.87c-.54.18-.93.89-.78 1.98Zm11.71-.59-.14-.31c.66-.4.7-.53.32-1.34l-.92-2c-.38-.81-.91-1.21-1.7-.84a2.32 2.32 0 0 0-1 1.2l1.29 2.77c.37.8.47.81 1.2.56l.14.31L122 166l-.14-.31c.76-.46.79-.54.43-1.32l-1.13-2.43c-.35-.75-.45-.77-1.14-.59l-.13-.27a8.4 8.4 0 0 0 1.42-1.24l.44.93c.15-.29.33-.58.53-.92a2 2 0 0 1 .81-.81c.94-.44 1.83-.05 2.36 1.08l1.06 2.27c.38.8.47.81 1.18.57l.14.31Zm9-5.01-.18-.29c.6-.47.64-.59.19-1.31l-1.16-1.77c-.57-.9-1.2-1.14-1.93-.67a1.84 1.84 0 0 0-.79 1.28l1.66 2.61c.45.7.55.75 1.25.39l.18.29-2.34 1.48-.17-.29c.63-.47.67-.59.21-1.32L128 154.5c-.44-.69-.49-.72-1.25-.33l-.17-.26a14 14 0 0 0 1.37-1.41l2.34 3.69a2.88 2.88 0 0 1 1.06-1.8c.89-.56 1.87-.4 2.71.92l1.22 1.92c.46.73.59.74 1.26.39l.18.29Zm8.07-9.69a2.89 2.89 0 0 1-.22 4.18 2.81 2.81 0 0 1-4-.42 3 3 0 0 1 .23-4.23 2.82 2.82 0 0 1 3.99.47m-3.57 2.68c1 1.27 2.36 1.77 3.19 1.08.62-.51.76-1.39-.37-2.77-1-1.17-2.22-1.74-3.12-1-.57.48-.63 1.55.3 2.69m8.13-2.94-.24-.24c.53-.63.55-.77-.05-1.38l-4.34-4.36c-.62-.63-.7-.59-1.33-.07l-.22-.22a10 10 0 0 0 1-1.68l5.58 5.6c.61.61.73.59 1.38.06l.24.24Zm6.55-9.59.86 1.5-2.75 3.28-.21-.06c-.55-1.92-1.14-3.8-1.78-5.73l-.74.89a1.26 1.26 0 0 0-.24 1.72l.15.37-.3.17c-.29-.43-.79-1.1-1.15-1.54l.18-.21c.2.07.36 0 .67-.37l1.92-2.29.19.06c.59 1.89 1.2 3.75 1.85 5.69l.83-1a1.67 1.67 0 0 0 .31-2l-.13-.33Z"/></svg>